<mxfile host="65bd71144e">
    <diagram id="emvvtYQxzRHmPXdrn84x" name="Page-1">
        <mxGraphModel dx="2056" dy="1134" grid="1" gridSize="10" guides="1" tooltips="1" connect="1" arrows="1" fold="1" page="1" pageScale="1" pageWidth="850" pageHeight="1100" math="0" shadow="0">
            <root>
                <mxCell id="0"/>
                <mxCell id="1" parent="0"/>
                <mxCell id="5" value="&lt;font style=&quot;font-size: 24px;&quot;&gt;CUSTOMER&lt;/font&gt;" style="shape=cube;whiteSpace=wrap;html=1;boundedLbl=1;backgroundOutline=1;darkOpacity=0.05;darkOpacity2=0.1;" parent="1" vertex="1">
                    <mxGeometry x="85" y="160" width="270" height="120" as="geometry"/>
                </mxCell>
                <mxCell id="6" value="Contact with business management" style="rounded=1;whiteSpace=wrap;html=1;fontSize=24;" parent="1" vertex="1">
                    <mxGeometry x="5" y="370" width="420" height="140" as="geometry"/>
                </mxCell>
                <mxCell id="7" value="" style="endArrow=none;html=1;fontSize=24;exitX=0;exitY=0.25;exitDx=0;exitDy=0;entryX=1;entryY=0.25;entryDx=0;entryDy=0;fontStyle=1" parent="1" source="6" target="6" edge="1">
                    <mxGeometry width="50" height="50" relative="1" as="geometry">
                        <mxPoint x="190" y="600" as="sourcePoint"/>
                        <mxPoint x="240" y="550" as="targetPoint"/>
                    </mxGeometry>
                </mxCell>
                <mxCell id="8" value="Transaction Logs" style="rounded=0;whiteSpace=wrap;html=1;fontSize=24;" parent="1" vertex="1">
                    <mxGeometry x="70" y="2120" width="330" height="80" as="geometry"/>
                </mxCell>
                <mxCell id="9" value="" style="endArrow=none;html=1;fontSize=24;exitX=0.155;exitY=-0.002;exitDx=0;exitDy=0;exitPerimeter=0;entryX=0.152;entryY=1.011;entryDx=0;entryDy=0;entryPerimeter=0;" parent="1" source="8" target="8" edge="1">
                    <mxGeometry width="50" height="50" relative="1" as="geometry">
                        <mxPoint x="-440" y="2050.1800000000003" as="sourcePoint"/>
                        <mxPoint x="-390" y="2000.18" as="targetPoint"/>
                    </mxGeometry>
                </mxCell>
                <mxCell id="13" value="Registration Card" style="rounded=0;whiteSpace=wrap;html=1;fontSize=24;" vertex="1" parent="1">
                    <mxGeometry x="55" y="1780" width="330" height="90.12" as="geometry"/>
                </mxCell>
                <mxCell id="14" value="" style="endArrow=none;html=1;fontSize=24;exitX=0.155;exitY=-0.002;exitDx=0;exitDy=0;exitPerimeter=0;entryX=0.152;entryY=1.011;entryDx=0;entryDy=0;entryPerimeter=0;" edge="1" source="13" target="13" parent="1">
                    <mxGeometry width="50" height="50" relative="1" as="geometry">
                        <mxPoint x="-20" y="1980.3000000000002" as="sourcePoint"/>
                        <mxPoint x="30" y="1930.3000000000002" as="targetPoint"/>
                    </mxGeometry>
                </mxCell>
                <mxCell id="15" value="Service Invoice" style="rounded=0;whiteSpace=wrap;html=1;fontSize=24;" vertex="1" parent="1">
                    <mxGeometry x="650" y="1780" width="330" height="90.12" as="geometry"/>
                </mxCell>
                <mxCell id="16" value="" style="endArrow=none;html=1;fontSize=24;exitX=0.155;exitY=-0.002;exitDx=0;exitDy=0;exitPerimeter=0;entryX=0.152;entryY=1.011;entryDx=0;entryDy=0;entryPerimeter=0;" edge="1" parent="1" source="15" target="15">
                    <mxGeometry width="50" height="50" relative="1" as="geometry">
                        <mxPoint x="-20" y="2260.48" as="sourcePoint"/>
                        <mxPoint x="30" y="2210.48" as="targetPoint"/>
                    </mxGeometry>
                </mxCell>
                <mxCell id="17" value="Start a transaction" style="rounded=1;whiteSpace=wrap;html=1;fontSize=24;" vertex="1" parent="1">
                    <mxGeometry x="55" y="630" width="300" height="100" as="geometry"/>
                </mxCell>
                <mxCell id="18" value="" style="endArrow=none;html=1;fontSize=24;exitX=0;exitY=0.25;exitDx=0;exitDy=0;entryX=1;entryY=0.25;entryDx=0;entryDy=0;" edge="1" source="17" target="17" parent="1">
                    <mxGeometry width="50" height="50" relative="1" as="geometry">
                        <mxPoint x="150" y="730" as="sourcePoint"/>
                        <mxPoint x="200" y="680" as="targetPoint"/>
                    </mxGeometry>
                </mxCell>
                <mxCell id="22" value="Avail Room Lodging" style="rounded=1;whiteSpace=wrap;html=1;fontSize=24;" vertex="1" parent="1">
                    <mxGeometry x="60" y="1030" width="300" height="100" as="geometry"/>
                </mxCell>
                <mxCell id="23" value="" style="endArrow=none;html=1;fontSize=24;exitX=0;exitY=0.25;exitDx=0;exitDy=0;entryX=1;entryY=0.25;entryDx=0;entryDy=0;" edge="1" parent="1" source="22" target="22">
                    <mxGeometry width="50" height="50" relative="1" as="geometry">
                        <mxPoint x="150" y="900" as="sourcePoint"/>
                        <mxPoint x="200" y="850" as="targetPoint"/>
                    </mxGeometry>
                </mxCell>
                <mxCell id="24" value="Avail Catering Service" style="rounded=1;whiteSpace=wrap;html=1;fontSize=24;" vertex="1" parent="1">
                    <mxGeometry x="610" y="1020" width="300" height="100" as="geometry"/>
                </mxCell>
                <mxCell id="25" value="" style="endArrow=none;html=1;fontSize=24;exitX=0;exitY=0.25;exitDx=0;exitDy=0;entryX=1;entryY=0.25;entryDx=0;entryDy=0;" edge="1" parent="1" source="24" target="24">
                    <mxGeometry width="50" height="50" relative="1" as="geometry">
                        <mxPoint x="490" y="900" as="sourcePoint"/>
                        <mxPoint x="540" y="850" as="targetPoint"/>
                    </mxGeometry>
                </mxCell>
                <mxCell id="26" value="Avail Breakfast Combo" style="rounded=1;whiteSpace=wrap;html=1;fontSize=24;" vertex="1" parent="1">
                    <mxGeometry x="-500" y="1030" width="300" height="100" as="geometry"/>
                </mxCell>
                <mxCell id="27" value="" style="endArrow=none;html=1;fontSize=24;exitX=0;exitY=0.25;exitDx=0;exitDy=0;entryX=1;entryY=0.25;entryDx=0;entryDy=0;" edge="1" parent="1" source="26" target="26">
                    <mxGeometry width="50" height="50" relative="1" as="geometry">
                        <mxPoint x="-190" y="900" as="sourcePoint"/>
                        <mxPoint x="-140" y="850" as="targetPoint"/>
                    </mxGeometry>
                </mxCell>
                <mxCell id="28" value="&lt;font style=&quot;font-size: 24px;&quot;&gt;Front Desk Counter Officer&lt;br&gt;&lt;/font&gt;" style="shape=cube;whiteSpace=wrap;html=1;boundedLbl=1;backgroundOutline=1;darkOpacity=0.05;darkOpacity2=0.1;" vertex="1" parent="1">
                    <mxGeometry x="530" y="630" width="340" height="80" as="geometry"/>
                </mxCell>
                <mxCell id="29" value="&lt;font style=&quot;font-size: 24px;&quot;&gt;Business Owner&lt;br&gt;&lt;/font&gt;" style="shape=cube;whiteSpace=wrap;html=1;boundedLbl=1;backgroundOutline=1;darkOpacity=0.05;darkOpacity2=0.1;" vertex="1" parent="1">
                    <mxGeometry x="1240" y="1035" width="230" height="90" as="geometry"/>
                </mxCell>
                <mxCell id="31" value="&lt;font style=&quot;font-size: 24px;&quot;&gt;Management Officer&lt;br&gt;&lt;/font&gt;" style="shape=cube;whiteSpace=wrap;html=1;boundedLbl=1;backgroundOutline=1;darkOpacity=0.05;darkOpacity2=0.1;" vertex="1" parent="1">
                    <mxGeometry x="-525" y="2130" width="305" height="90" as="geometry"/>
                </mxCell>
                <mxCell id="32" value="&lt;font style=&quot;font-size: 24px;&quot;&gt;Staff member&lt;br&gt;&lt;/font&gt;" style="shape=cube;whiteSpace=wrap;html=1;boundedLbl=1;backgroundOutline=1;darkOpacity=0.05;darkOpacity2=0.1;" vertex="1" parent="1">
                    <mxGeometry x="-790" y="1990" width="210" height="90" as="geometry"/>
                </mxCell>
                <mxCell id="33" value="Choose Service to Avail" style="rounded=1;whiteSpace=wrap;html=1;fontSize=24;" vertex="1" parent="1">
                    <mxGeometry x="55" y="830" width="300" height="100" as="geometry"/>
                </mxCell>
                <mxCell id="34" value="" style="endArrow=none;html=1;fontSize=24;exitX=0;exitY=0.25;exitDx=0;exitDy=0;entryX=1;entryY=0.25;entryDx=0;entryDy=0;" edge="1" parent="1" source="33" target="33">
                    <mxGeometry width="50" height="50" relative="1" as="geometry">
                        <mxPoint x="145" y="880" as="sourcePoint"/>
                        <mxPoint x="195" y="830" as="targetPoint"/>
                    </mxGeometry>
                </mxCell>
                <mxCell id="37" value="Inquire for Information" style="rounded=1;whiteSpace=wrap;html=1;fontSize=24;" vertex="1" parent="1">
                    <mxGeometry x="-420" y="370" width="300" height="100" as="geometry"/>
                </mxCell>
                <mxCell id="38" value="" style="endArrow=none;html=1;fontSize=24;exitX=0;exitY=0.25;exitDx=0;exitDy=0;entryX=1;entryY=0.25;entryDx=0;entryDy=0;" edge="1" parent="1" source="37" target="37">
                    <mxGeometry width="50" height="50" relative="1" as="geometry">
                        <mxPoint x="-190" y="730" as="sourcePoint"/>
                        <mxPoint x="-140" y="680" as="targetPoint"/>
                    </mxGeometry>
                </mxCell>
                <mxCell id="39" value="Other purposes for contact which is non-transactional or part of business process&amp;nbsp;" style="rounded=1;whiteSpace=wrap;html=1;fontSize=24;" vertex="1" parent="1">
                    <mxGeometry x="550" y="160" width="410" height="200" as="geometry"/>
                </mxCell>
                <mxCell id="40" value="" style="endArrow=none;html=1;fontSize=24;exitX=0;exitY=0.25;exitDx=0;exitDy=0;entryX=1;entryY=0.25;entryDx=0;entryDy=0;" edge="1" parent="1" source="39" target="39">
                    <mxGeometry width="50" height="50" relative="1" as="geometry">
                        <mxPoint x="560" y="790" as="sourcePoint"/>
                        <mxPoint x="610" y="740" as="targetPoint"/>
                    </mxGeometry>
                </mxCell>
                <mxCell id="44" value="Gather Customer Preferences and Requests for room lodging" style="rounded=1;whiteSpace=wrap;html=1;fontSize=24;" vertex="1" parent="1">
                    <mxGeometry x="60" y="1280" width="395" height="150" as="geometry"/>
                </mxCell>
                <mxCell id="45" value="" style="endArrow=none;html=1;fontSize=24;exitX=0;exitY=0.25;exitDx=0;exitDy=0;entryX=1;entryY=0.25;entryDx=0;entryDy=0;" edge="1" parent="1" source="44" target="44">
                    <mxGeometry width="50" height="50" relative="1" as="geometry">
                        <mxPoint x="145" y="1080" as="sourcePoint"/>
                        <mxPoint x="195" y="1030" as="targetPoint"/>
                    </mxGeometry>
                </mxCell>
            </root>
        </mxGraphModel>
    </diagram>
</mxfile>